<svg width="233" height="90" viewBox="0 0 233 90" fill="none" xmlns="http://www.w3.org/2000/svg">
<g clip-path="url(#clip0_312_19)">
<rect width="233" height="90" fill="#54ACFD"/>
<path d="M78.5898 63.7148L78.707 57.3867C78.707 56.1107 78.681 54.9714 78.6289 53.9688C78.5898 52.9531 78.4727 52.2695 78.2773 51.918C78.0951 51.5534 77.9128 51.319 77.7305 51.2148C77.5482 51.0977 77.3659 51.0065 77.1836 50.9414C77.0013 50.8763 76.8971 50.8438 76.8711 50.8438C76.6628 50.7917 76.5586 50.4466 76.5586 49.8086C76.5586 49.1576 76.5846 48.7539 76.6367 48.5977C81.168 47.5951 84.5924 47.0938 86.9102 47.0938C92.444 47.0938 96.7409 48.4284 99.8008 51.0977C102.379 53.3372 103.668 56.4883 103.668 60.5508C103.668 63.806 102.893 66.651 101.344 69.0859C99.7943 71.5078 97.6589 73.3503 94.9375 74.6133C92.2292 75.8633 89.1172 76.4883 85.6016 76.4883C83.6745 76.4883 81.8711 76.3255 80.1914 76C79.332 75.6484 78.8438 74.75 78.7266 73.3047C78.6354 72.1849 78.5898 70.4987 78.5898 68.2461V63.7148ZM84.5859 56.2344L84.3906 68.1094V69.4375C84.3906 71.9245 84.6185 73.3503 85.0742 73.7148C85.543 73.793 86.0443 73.832 86.5781 73.832C87.112 73.832 87.8281 73.8125 88.7266 73.7734C89.625 73.7214 90.582 73.4414 91.5977 72.9336C92.6263 72.4258 93.5703 71.6966 94.4297 70.7461C95.2891 69.7956 95.9727 68.5326 96.4805 66.957C96.9883 65.3685 97.2422 63.6693 97.2422 61.8594C97.2422 60.0365 97.0339 58.4609 96.6172 57.1328C96.2135 55.8047 95.6797 54.7044 95.0156 53.832C94.3646 52.9596 93.6094 52.224 92.75 51.625C91.1094 50.4922 89.4232 49.9258 87.6914 49.9258C85.9596 49.9258 84.7682 50.0169 84.1172 50.1992C84.4297 51.5664 84.5859 53.1875 84.5859 55.0625V56.2344ZM119.332 47.1719L120.719 47.1914C124.521 47.2826 127.164 47.9922 128.648 49.3203C129.938 50.4661 130.582 52.1849 130.582 54.4766C130.582 55.6354 130.224 56.8138 129.508 58.0117C128.805 59.2096 127.913 60.2057 126.832 61C128.46 61.2604 129.84 62.0286 130.973 63.3047C132.105 64.5677 132.672 66.1562 132.672 68.0703C132.672 73.9167 128.349 76.8398 119.703 76.8398C117.385 76.8398 114.684 76.625 111.598 76.1953C111.038 76.1172 110.673 75.388 110.504 74.0078C110.452 73.6042 110.426 73.168 110.426 72.6992L110.66 59.8086C110.66 54.7305 110.406 51.8073 109.898 51.0391C109.651 50.6875 109.215 50.4857 108.59 50.4336C108.408 49.9909 108.316 49.5286 108.316 49.0469C108.316 48.5521 108.329 48.2461 108.355 48.1289V47.9922C109.332 47.7839 110.882 47.5951 113.004 47.4258C115.139 47.2565 117.249 47.1719 119.332 47.1719ZM116.383 69.5156L116.344 70.8828C116.344 72.4062 116.611 73.3372 117.145 73.6758C118.017 73.7669 118.805 73.8125 119.508 73.8125C120.224 73.8125 120.895 73.7669 121.52 73.6758C122.158 73.5846 122.789 73.4154 123.414 73.168C124.052 72.9206 124.592 72.6016 125.035 72.2109C126.025 71.3125 126.52 70.0169 126.52 68.3242C126.52 65.0039 124.163 63.3438 119.449 63.3438C118.551 63.3438 117.574 63.4023 116.52 63.5195C116.52 65.056 116.474 67.0547 116.383 69.5156ZM123.395 60.3555C124.592 58.5846 125.191 56.8984 125.191 55.2969C125.191 53.6953 124.697 52.4453 123.707 51.5469C122.717 50.6484 121.174 50.1992 119.078 50.1992C118.062 50.1992 117.008 50.3034 115.914 50.5117C116.214 51.9049 116.383 53.2461 116.422 54.5352C116.461 55.8242 116.48 57.0091 116.48 58.0898C116.493 59.1706 116.507 59.9909 116.52 60.5508C118.342 60.3945 119.762 60.3164 120.777 60.3164C121.793 60.3164 122.665 60.3294 123.395 60.3555ZM136.715 70.5703C136.715 69.0469 137.587 68.2852 139.332 68.2852C140.217 68.2852 141.09 68.513 141.949 68.9688C141.949 70.6224 142.294 71.8919 142.984 72.7773C143.674 73.6497 144.853 74.0859 146.52 74.0859C148.199 74.0859 149.43 73.7669 150.211 73.1289C150.992 72.4909 151.383 71.4753 151.383 70.082C151.383 68.5977 150.81 67.3281 149.664 66.2734C148.727 65.401 147.639 64.6458 146.402 64.0078C145.165 63.3698 144.169 62.849 143.414 62.4453C142.659 62.0286 141.936 61.5729 141.246 61.0781C140.569 60.5833 139.964 60.0495 139.43 59.4766C138.284 58.2396 137.711 56.7617 137.711 55.043C137.711 53.3112 138.16 51.8529 139.059 50.668C140.816 48.3503 143.674 47.1914 147.633 47.1914C150.68 47.1914 153.004 47.8229 154.605 49.0859C156.064 50.2448 156.793 51.5339 156.793 52.9531C156.793 53.6172 156.565 54.1641 156.109 54.5938C155.667 55.0234 154.977 55.2383 154.039 55.2383C153.102 55.2383 152.138 54.9974 151.148 54.5156C151.148 54.4245 151.148 54.3398 151.148 54.2617C151.148 52.8164 150.823 51.6576 150.172 50.7852C149.534 49.9128 148.564 49.4766 147.262 49.4766C145.96 49.4766 144.924 49.8411 144.156 50.5703C143.401 51.2995 143.023 52.3737 143.023 53.793C143.023 55.0169 143.622 56.0911 144.82 57.0156C145.654 57.6667 146.747 58.3307 148.102 59.0078C149.456 59.6849 150.523 60.2383 151.305 60.668C152.099 61.0846 152.854 61.5599 153.57 62.0938C154.286 62.6146 154.918 63.1875 155.465 63.8125C156.663 65.1667 157.262 66.7292 157.262 68.5C157.262 70.2578 156.786 71.7487 155.836 72.9727C154.885 74.1836 153.616 75.1081 152.027 75.7461C150.439 76.3711 148.837 76.6836 147.223 76.6836C145.621 76.6836 144.267 76.5534 143.16 76.293C142.053 76.0456 141.116 75.7135 140.348 75.2969C139.579 74.8672 138.915 74.3854 138.355 73.8516C137.262 72.8099 136.715 71.7161 136.715 70.5703Z" fill="white"/>
<path d="M118.66 35V28.24H110.7V26.12H118.66V23.24H110.7V21.12H117.58L107.9 6.16H112.22L116.98 14.24C118.38 16.8 119.1 18.08 120.42 20.4H120.62C121.98 18.08 122.7 16.72 124.06 14.24L128.78 6.16H133.02L123.34 21.12H130.22V23.24H122.3V26.12H130.22V28.24H122.3V35H118.66Z" fill="white"/>
<line x1="90" y1="24.5" y2="24.5" stroke="white" stroke-width="5"/>
<line x1="236" y1="24.5" x2="146" y2="24.5" stroke="white" stroke-width="5"/>
</g>
<defs>
<clipPath id="clip0_312_19">
<rect width="233" height="90" fill="white"/>
</clipPath>
</defs>
</svg>
