<svg width="292" height="149" viewBox="0 0 292 149" fill="none" xmlns="http://www.w3.org/2000/svg">
<g clip-path="url(#clip0_308_3)">
<rect width="292" height="149" fill="#FFF0CA"/>
<path d="M40.1011 108V104.352C42.5331 104.288 44.4851 104.128 45.9571 103.872C47.4931 103.552 48.6771 103.008 49.5091 102.24C50.3411 101.408 50.8851 100.32 51.1411 98.976C51.4611 97.568 51.6211 95.712 51.6211 93.408V48.672C51.6211 46.432 51.4931 44.64 51.2371 43.296C51.0451 41.888 50.5971 40.8 49.8931 40.032C49.2531 39.2 48.2931 38.656 47.0131 38.4C45.7331 38.08 44.0691 37.856 42.0211 37.728V34.08H75.7171C81.4771 34.08 86.7891 35.04 91.6531 36.96C96.5811 38.88 100.805 41.536 104.325 44.928C107.909 48.32 110.693 52.352 112.677 57.024C114.661 61.696 115.653 66.784 115.653 72.288C115.653 77.536 114.725 82.368 112.869 86.784C111.013 91.136 108.389 94.88 104.997 98.016C101.669 101.152 97.6691 103.616 92.9971 105.408C88.3251 107.136 83.2051 108 77.6371 108H40.1011ZM63.3331 38.784C62.2451 38.784 61.7011 39.328 61.7011 40.416V92.352C61.7011 99.648 66.4691 103.296 76.0051 103.296C84.7731 103.296 91.4931 100.704 96.1651 95.52C100.837 90.272 103.173 82.592 103.173 72.48C103.173 67.168 102.533 62.432 101.253 58.272C99.9731 54.112 98.1171 50.592 95.6851 47.712C93.3171 44.832 90.4371 42.624 87.0451 41.088C83.6531 39.552 79.8131 38.784 75.5251 38.784H63.3331ZM123.726 108V104.352C126.222 104.288 128.206 104.096 129.678 103.776C131.214 103.456 132.366 102.912 133.134 102.144C133.966 101.376 134.51 100.288 134.766 98.88C135.086 97.472 135.246 95.648 135.246 93.408V48.672C135.246 46.432 135.118 44.64 134.862 43.296C134.67 41.888 134.222 40.8 133.518 40.032C132.878 39.2 131.918 38.656 130.638 38.4C129.358 38.08 127.694 37.856 125.646 37.728V34.08H154.35C162.99 34.08 169.71 35.616 174.51 38.688C179.31 41.76 181.71 46.08 181.71 51.648C181.71 55.872 180.366 59.328 177.678 62.016C175.054 64.704 170.862 66.912 165.102 68.64V69.024C167.086 69.216 168.814 69.44 170.286 69.696C171.758 69.952 173.07 70.272 174.222 70.656C175.374 70.976 176.43 71.392 177.39 71.904C178.414 72.416 179.406 72.992 180.366 73.632C186.062 77.664 188.91 82.72 188.91 88.8C188.91 92.192 187.95 95.36 186.03 98.304C184.174 101.184 181.55 103.456 178.158 105.12C177.07 105.696 175.95 106.176 174.798 106.56C173.646 106.88 172.302 107.168 170.766 107.424C169.23 107.616 167.438 107.776 165.39 107.904C163.406 107.968 161.038 108 158.286 108H123.726ZM158.574 103.872C170.158 103.872 175.95 98.912 175.95 88.992C175.95 81.76 172.974 76.704 167.022 73.824C165.998 73.376 165.006 72.992 164.046 72.672C163.086 72.352 161.966 72.128 160.686 72C159.406 71.808 157.87 71.68 156.078 71.616C154.35 71.552 152.206 71.52 149.646 71.52H145.326V92.928C145.326 96.832 146.35 99.648 148.398 101.376C150.446 103.04 153.838 103.872 158.574 103.872ZM150.702 66.72C152.686 66.72 154.35 66.688 155.694 66.624C157.038 66.56 158.19 66.464 159.15 66.336C160.11 66.144 160.942 65.92 161.646 65.664C162.414 65.344 163.182 64.928 163.95 64.416C165.998 63.136 167.438 61.6 168.27 59.808C169.166 58.016 169.614 55.68 169.614 52.8C169.614 47.744 168.366 44.128 165.87 41.952C163.438 39.712 159.598 38.592 154.35 38.592H146.958C145.87 38.592 145.326 39.136 145.326 40.224V66.72H150.702ZM199.24 85.44H202.792C203.24 88.32 204.072 90.912 205.288 93.216C206.568 95.52 208.136 97.472 209.992 99.072C211.912 100.672 214.088 101.92 216.52 102.816C219.016 103.648 221.704 104.064 224.584 104.064C229.32 104.064 233.064 102.944 235.816 100.704C238.568 98.464 239.944 95.424 239.944 91.584C239.944 89.984 239.656 88.512 239.08 87.168C238.568 85.824 237.672 84.544 236.392 83.328C235.112 82.048 233.384 80.8 231.208 79.584C229.096 78.368 226.408 77.056 223.144 75.648C219.176 73.92 215.848 72.256 213.16 70.656C210.472 69.056 208.328 67.392 206.728 65.664C205.128 63.936 203.976 62.112 203.272 60.192C202.632 58.208 202.312 55.968 202.312 53.472C202.312 50.528 202.824 47.808 203.848 45.312C204.936 42.816 206.44 40.672 208.36 38.88C210.28 37.024 212.552 35.616 215.176 34.656C217.8 33.632 220.68 33.12 223.816 33.12C226.632 33.12 229.256 33.568 231.688 34.464C234.12 35.36 236.584 36.8 239.08 38.784L241.576 34.464H243.784L244.84 53.568H241.288C239.752 48.32 237.512 44.416 234.568 41.856C231.688 39.296 228.2 38.016 224.104 38.016C220.2 38.016 217.096 38.976 214.792 40.896C212.488 42.816 211.336 45.408 211.336 48.672C211.336 50.208 211.592 51.616 212.104 52.896C212.616 54.112 213.448 55.296 214.6 56.448C215.752 57.536 217.256 58.656 219.112 59.808C220.968 60.896 223.272 62.048 226.024 63.264C230.76 65.376 234.696 67.36 237.832 69.216C240.968 71.008 243.464 72.832 245.32 74.688C247.176 76.48 248.488 78.4 249.256 80.448C250.024 82.432 250.408 84.672 250.408 87.168C250.408 90.368 249.768 93.312 248.488 96C247.208 98.688 245.416 100.992 243.112 102.912C240.808 104.832 238.056 106.336 234.856 107.424C231.656 108.448 228.136 108.96 224.296 108.96C220.648 108.96 217.352 108.448 214.408 107.424C211.528 106.4 208.584 104.672 205.576 102.24L202.888 106.944H200.68L199.24 85.44Z" fill="#FC8618"/>
</g>
<defs>
<clipPath id="clip0_308_3">
<rect width="292" height="149" fill="white"/>
</clipPath>
</defs>
</svg>
