<svg width="70" height="70" viewBox="0 0 70 70" fill="none" xmlns="http://www.w3.org/2000/svg">
<rect width="70" height="70" fill="#54ACFD"/>
<path d="M14.6973 38.501L14.9023 27.4268C14.9023 25.1937 14.8568 23.1999 14.7656 21.4453C14.6973 19.668 14.4922 18.4717 14.1504 17.8564C13.8314 17.2184 13.5124 16.8083 13.1934 16.626C12.8743 16.4209 12.5553 16.2614 12.2363 16.1475C11.9173 16.0335 11.735 15.9766 11.6895 15.9766C11.3249 15.8854 11.1426 15.2816 11.1426 14.165C11.1426 13.0257 11.1882 12.3193 11.2793 12.0459C19.209 10.2913 25.2018 9.41406 29.2578 9.41406C38.9421 9.41406 46.4616 11.7497 51.8164 16.4209C56.3281 20.3402 58.584 25.8545 58.584 32.9639C58.584 38.6605 57.2282 43.6393 54.5166 47.9004C51.805 52.1387 48.068 55.363 43.3057 57.5732C38.5661 59.7607 33.1201 60.8545 26.9678 60.8545C23.5954 60.8545 20.4395 60.5697 17.5 60C15.9961 59.3848 15.1416 57.8125 14.9365 55.2832C14.777 53.3236 14.6973 50.3727 14.6973 46.4307V38.501ZM25.1904 25.4102L24.8486 46.1914V48.5156C24.8486 52.8678 25.2474 55.363 26.0449 56.001C26.8652 56.1377 27.7425 56.2061 28.6768 56.2061C29.611 56.2061 30.8643 56.1719 32.4365 56.1035C34.0088 56.0124 35.6836 55.5225 37.4609 54.6338C39.2611 53.7451 40.9131 52.4691 42.417 50.8057C43.9209 49.1423 45.1172 46.932 46.0059 44.1748C46.8945 41.3949 47.3389 38.4212 47.3389 35.2539C47.3389 32.0638 46.9743 29.3066 46.2451 26.9824C45.5387 24.6582 44.6045 22.7327 43.4424 21.2061C42.3031 19.6794 40.9814 18.3919 39.4775 17.3438C36.6064 15.3613 33.6556 14.3701 30.625 14.3701C27.5944 14.3701 25.5094 14.5296 24.3701 14.8486C24.917 17.2412 25.1904 20.0781 25.1904 23.3594V25.4102Z" fill="white"/>
</svg>
